<?xml version="1.0" encoding="UTF-8"?>
<svg id="Capa_1" data-name="Capa 1" xmlns="http://www.w3.org/2000/svg" viewBox="0 0 128 128">
  <defs>
    <style>
      .cls-1 {
        fill: #134070;
      }

      .cls-2 {
        fill: #fff;
      }

      .cls-3 {
        fill: #5af582;
      }
    </style>
  </defs>
  <rect class="cls-1" width="128" height="128"/>
  <g>
    <path class="cls-3" d="M97.88,116.05c-.67,0-1.35-.16-1.97-.47l-19.32-9.8c-19.87,5.43-41.27-2.61-52.58-19.96-14.38-22.06-8.13-51.71,13.93-66.09,10.68-6.97,23.45-9.36,35.93-6.72,12.48,2.63,23.2,9.96,30.16,20.65h0c11.31,17.35,10.02,40.18-2.95,56.16l1.17,21.64c.08,1.56-.67,3.04-1.98,3.89-.72.47-1.55.71-2.38.71ZM77.02,96.73c.68,0,1.36.16,1.97.47l14.12,7.16-.86-15.82c-.06-1.14.33-2.26,1.08-3.11,11.5-13.1,12.88-32.43,3.37-47.02-5.69-8.73-14.45-14.72-24.65-16.87-10.19-2.15-20.62-.2-29.36,5.5-18.02,11.75-23.13,35.98-11.38,54.01,9.51,14.58,27.76,21.11,44.39,15.88.43-.13.87-.2,1.31-.2Z"/>
    <path class="cls-2" d="M33.17,59.71c0-17.1,13.28-30.04,30.83-30.04s30.83,12.94,30.83,30.16c0,1.46-.11,3.6-.45,4.95h-45.57c1.91,7.43,7.76,12.26,15.64,12.26,5.97,0,11.14-2.7,13.62-6.41h15.87c-4.39,11.36-15.76,19.13-29.71,19.13-17.78,0-31.06-12.94-31.06-30.04ZM48.92,54.09h30.15c-1.8-6.98-7.65-11.7-15.08-11.7s-13.05,4.61-15.08,11.7Z"/>
  </g>
</svg>